<?xml version="1.0" standalone="no"?>
<!DOCTYPE svg PUBLIC "-//W3C//DTD SVG 20010904//EN"
 "http://www.w3.org/TR/2001/REC-SVG-20010904/DTD/svg10.dtd">
<svg version="1.0" xmlns="http://www.w3.org/2000/svg"
 width="393.000000pt" height="393.000000pt" viewBox="0 0 393.000000 393.000000"
 preserveAspectRatio="xMidYMid meet">
<metadata>
Created by potrace 1.14, written by Peter Selinger 2001-2017
</metadata>
<g transform="translate(0.000000,393.000000) scale(0.100000,-0.100000)"
fill="#000000" stroke="none">
<path d="M1877 3783 c-1 -1 -30 -4 -64 -6 -34 -3 -67 -8 -72 -12 -6 -3 -11 0
-11 7 0 8 -3 9 -8 3 -4 -5 -18 -11 -32 -13 -14 -2 -36 -6 -50 -9 -14 -2 -33
-5 -42 -5 -10 1 -18 -3 -18 -7 0 -5 -13 -7 -30 -6 -18 2 -27 -1 -23 -8 4 -6
-4 -8 -21 -5 -14 3 -26 2 -26 -2 0 -4 -15 -11 -32 -15 -18 -4 -35 -9 -38 -10
-3 -1 -20 -6 -37 -10 -18 -4 -33 -10 -33 -14 0 -4 -10 -7 -22 -8 -11 -1 -24
-6 -27 -11 -3 -5 -27 -15 -53 -23 -27 -7 -48 -16 -48 -20 0 -6 -29 -17 -41
-15 -3 1 -13 -7 -23 -17 -10 -9 -22 -14 -28 -11 -7 4 -8 2 -4 -4 4 -7 2 -13
-3 -13 -6 -1 -15 -2 -20 -3 -6 0 -16 -7 -22 -13 -7 -7 -19 -13 -26 -13 -7 0
-13 -4 -13 -10 0 -5 -7 -10 -15 -10 -8 0 -15 -4 -15 -8 0 -5 -12 -15 -27 -23
-32 -16 -45 -25 -76 -55 -13 -11 -28 -19 -35 -16 -7 2 -12 -3 -12 -12 0 -9 -4
-16 -10 -16 -5 0 -26 -17 -48 -37 -21 -21 -47 -44 -59 -52 -12 -8 -20 -18 -17
-23 3 -4 -2 -8 -11 -8 -9 0 -13 -4 -10 -10 3 -5 2 -10 -4 -10 -5 0 -23 -12
-38 -27 -15 -14 -21 -23 -13 -18 8 5 -4 -10 -27 -32 -24 -22 -43 -46 -43 -52
0 -6 -4 -11 -10 -11 -5 0 -10 -5 -10 -10 0 -6 -10 -22 -23 -35 -38 -41 -48
-55 -40 -55 4 0 3 -4 -3 -8 -13 -8 -46 -60 -67 -105 -7 -15 -16 -24 -20 -20
-4 3 -7 -3 -7 -15 0 -12 -4 -22 -10 -22 -5 0 -10 -9 -10 -20 0 -11 -5 -20 -11
-20 -5 0 -7 -4 -4 -10 3 -5 1 -10 -5 -10 -6 0 -8 -4 -5 -10 3 -5 1 -10 -5 -10
-6 0 -8 -4 -5 -10 3 -5 1 -10 -4 -10 -6 0 -10 -3 -9 -7 1 -5 -4 -21 -11 -38
-7 -16 -12 -31 -11 -33 1 -2 -6 -15 -15 -29 -9 -14 -12 -22 -5 -18 7 4 4 -4
-5 -19 -10 -14 -13 -26 -9 -26 5 0 4 -4 -3 -8 -7 -4 -13 -22 -15 -40 -1 -17
-8 -34 -15 -36 -7 -3 -10 -12 -7 -20 3 -8 1 -23 -5 -34 -8 -15 -8 -22 2 -25 9
-4 9 -6 -1 -6 -7 -1 -10 -5 -7 -11 3 -5 2 -10 -3 -10 -5 0 -8 -10 -7 -22 1
-13 -2 -31 -6 -40 -5 -9 -10 -35 -11 -57 -1 -23 -5 -41 -10 -41 -5 0 -4 -9 2
-20 6 -11 7 -20 2 -20 -5 0 -8 -16 -7 -35 1 -19 -3 -35 -9 -35 -6 0 -4 -5 4
-10 8 -5 11 -10 5 -10 -6 0 -10 -34 -10 -82 0 -46 5 -86 10 -90 6 -5 6 -8 -1
-8 -8 0 -10 -11 -5 -32 3 -18 6 -46 6 -63 0 -16 4 -33 10 -37 6 -5 5 -8 -4 -8
-9 0 -10 -4 -4 -12 8 -11 13 -42 16 -105 0 -7 3 -13 6 -13 3 0 7 -16 8 -37 1
-20 8 -40 15 -44 10 -7 10 -9 -2 -9 -12 0 -12 -2 -2 -9 7 -4 12 -12 11 -17 -1
-5 0 -11 1 -14 2 -7 8 -31 15 -65 3 -16 9 -32 13 -35 4 -3 9 -12 11 -20 2 -8
4 -19 6 -25 1 -5 7 -21 12 -35 6 -14 9 -28 6 -33 -2 -4 1 -7 6 -7 6 0 11 -9
11 -20 0 -11 5 -20 10 -20 6 0 10 -8 10 -17 0 -10 7 -27 15 -37 8 -10 12 -23
9 -27 -3 -5 0 -9 5 -9 6 0 11 -6 11 -13 0 -7 9 -23 20 -35 12 -12 16 -22 10
-22 -9 0 -1 -12 35 -54 6 -6 11 -17 12 -23 2 -7 21 -36 43 -65 22 -29 40 -59
40 -66 0 -7 5 -10 10 -7 6 3 10 1 10 -6 0 -7 7 -19 15 -28 8 -9 39 -42 68 -73
30 -32 52 -60 49 -63 -3 -3 2 -5 11 -5 10 0 17 -6 17 -12 0 -7 15 -24 32 -38
18 -14 45 -38 60 -54 15 -16 28 -26 28 -22 0 3 8 -2 18 -11 39 -37 73 -63 83
-63 5 0 7 -4 4 -10 -3 -5 3 -10 14 -10 12 0 21 -5 21 -11 0 -5 4 -7 10 -4 5 3
10 -1 10 -10 0 -11 5 -15 14 -12 8 3 17 -1 20 -9 3 -8 13 -14 21 -14 10 0 13
-5 9 -12 -5 -8 -2 -9 9 -5 10 4 20 0 26 -11 6 -9 11 -14 11 -9 0 4 18 -4 39
-17 21 -14 42 -22 45 -19 3 4 6 1 6 -6 0 -7 5 -9 10 -6 6 3 10 1 10 -5 0 -6 5
-8 10 -5 5 3 10 1 10 -6 0 -7 3 -10 6 -6 4 3 21 -1 38 -10 17 -10 35 -16 40
-15 4 2 14 -2 20 -8 7 -5 16 -7 19 -3 4 3 7 1 7 -5 0 -7 11 -12 25 -12 14 0
25 -4 25 -10 0 -5 16 -10 36 -10 21 0 33 -4 29 -10 -4 -6 -3 -10 2 -9 28 5 53
-2 47 -13 -5 -10 -4 -10 6 -1 9 8 19 9 31 3 10 -6 33 -12 51 -14 18 -3 33 -5
33 -6 0 -3 43 -10 82 -12 24 -2 43 -6 43 -10 0 -11 44 -5 52 7 5 6 8 5 8 -3 0
-7 12 -12 28 -12 15 1 73 1 129 0 56 -1 112 1 124 5 16 6 20 4 13 -6 -7 -12
-5 -12 9 -1 9 8 22 12 29 9 7 -2 21 0 31 5 11 6 17 5 17 -2 0 -6 5 -8 13 -3 6
4 19 8 27 9 8 2 33 5 55 9 22 3 48 7 58 8 9 1 17 4 17 8 0 3 11 4 25 1 16 -3
25 0 25 8 0 7 8 10 20 7 11 -3 20 -1 20 4 0 6 6 9 13 8 6 -1 20 1 30 4 44 17
53 20 67 24 8 2 21 5 28 5 6 1 12 5 12 9 0 4 17 10 37 14 21 4 42 10 48 13 5
4 15 7 20 8 28 5 41 10 46 18 4 5 18 9 33 9 14 0 26 3 26 7 0 5 11 7 25 5 14
-1 25 1 25 5 0 4 6 7 13 7 6 0 30 4 52 8 22 4 55 8 73 9 17 1 32 4 32 8 0 3
16 5 35 3 19 -2 35 1 35 6 0 6 9 5 21 -2 16 -8 20 -8 14 1 -6 9 -2 9 14 1 11
-7 21 -8 21 -4 0 5 20 9 45 9 25 0 45 -4 45 -9 0 -4 9 -3 19 3 14 7 22 7 27
-1 4 -8 9 -7 15 2 6 10 9 10 9 2 0 -9 7 -10 25 -3 13 5 27 6 29 1 3 -4 25 -9
48 -10 43 -1 103 -7 103 -11 0 -1 18 -4 40 -6 21 -3 45 -9 51 -15 8 -7 14 -6
17 3 4 10 6 10 6 1 1 -20 25 -15 39 7 7 11 8 20 3 20 -5 0 -7 9 -4 20 3 11 1
20 -4 20 -9 0 -14 23 -16 72 -1 16 -5 28 -9 28 -4 0 -8 18 -8 39 0 22 -4 42
-8 45 -4 2 -7 20 -7 38 1 18 -2 41 -7 51 -6 11 -5 17 3 17 8 0 6 7 -5 19 -11
13 -14 21 -7 26 11 6 8 45 -5 66 -4 8 -3 9 4 5 7 -4 12 -2 12 3 0 6 -4 11 -10
11 -5 0 -10 5 -10 11 0 5 3 8 8 6 4 -3 8 6 8 19 1 13 -1 24 -5 24 -4 0 -7 9
-7 20 0 11 3 20 6 20 4 0 5 21 4 47 -2 29 2 50 9 55 9 6 9 8 -1 8 -10 0 -10 5
-2 20 8 15 8 20 -2 20 -10 0 -10 2 -1 8 7 4 11 19 8 32 -2 13 -1 28 4 34 5 6
10 25 12 41 2 17 6 35 10 40 3 6 6 22 5 38 -1 15 2 27 7 27 4 0 6 4 2 9 -3 5
-1 12 4 16 5 3 8 14 6 25 -2 11 1 20 6 20 6 0 7 5 4 10 -3 6 -2 10 4 10 5 0 8
8 6 18 -1 9 1 22 5 27 5 6 9 13 9 18 1 4 1 8 2 10 0 1 3 16 5 32 3 17 10 32
15 33 6 3 4 11 -3 20 -10 12 -10 14 0 8 8 -5 12 2 13 23 2 33 3 38 12 61 8 20
19 113 21 177 0 29 3 53 6 53 3 0 4 28 3 63 -1 34 -2 101 -4 150 -1 48 -7 87
-12 87 -5 0 -4 6 2 14 9 11 9 16 1 21 -7 4 -10 18 -7 31 2 14 1 27 -3 29 -4 2
-6 16 -5 30 2 14 -1 25 -7 25 -6 0 -8 11 -6 25 3 14 1 25 -3 25 -5 0 -5 7 -2
17 4 9 2 14 -3 10 -6 -3 -11 12 -11 35 -1 23 -6 44 -10 47 -8 6 -14 24 -16 53
-1 10 -5 18 -9 18 -4 0 -8 11 -8 25 0 14 -5 25 -11 25 -6 0 -8 7 -5 15 3 9 -1
18 -9 21 -7 3 -12 11 -9 19 3 7 -1 19 -8 26 -7 8 -14 22 -16 31 -1 10 -16 42
-32 73 -16 30 -26 55 -22 55 4 0 -1 5 -11 11 -9 6 -15 14 -12 20 4 5 -1 12 -9
15 -9 3 -14 10 -11 14 3 4 -2 13 -10 20 -8 7 -12 16 -9 21 3 5 -1 9 -8 9 -8 0
-19 12 -25 28 -14 32 -31 58 -55 86 -10 11 -18 25 -18 32 0 7 -9 16 -20 19
-11 3 -20 11 -20 17 0 6 -13 24 -30 40 -16 15 -30 33 -30 39 0 5 -4 7 -10 4
-5 -3 -10 -1 -10 4 0 14 -43 57 -52 54 -5 -2 -8 7 -9 20 0 12 -3 16 -6 9 -3
-8 -11 -4 -25 13 -11 14 -25 22 -31 18 -7 -3 -9 -3 -5 2 8 8 -5 21 -62 65 -18
14 -40 32 -48 40 -9 8 -18 15 -22 15 -4 0 -14 8 -24 18 -10 9 -24 17 -32 17
-8 0 -12 5 -9 10 3 6 -3 10 -14 10 -12 0 -21 5 -21 10 0 6 -9 10 -20 10 -11 0
-20 7 -20 15 0 8 -3 14 -7 13 -13 -4 -83 34 -83 44 0 5 -5 6 -10 3 -6 -4 -17
-1 -25 5 -8 7 -15 9 -15 4 0 -5 -7 -1 -14 9 -8 10 -18 18 -23 18 -4 -1 -21 4
-38 10 -16 7 -33 11 -37 10 -5 0 -8 4 -8 11 0 6 -3 8 -7 5 -3 -4 -17 0 -31 9
-17 11 -22 12 -16 3 6 -11 5 -12 -8 -2 -8 7 -18 10 -21 6 -4 -3 -7 -1 -7 5 0
7 -9 12 -19 12 -11 0 -32 5 -48 12 -15 6 -36 10 -45 9 -10 -1 -18 3 -18 10 0
7 -2 10 -5 7 -4 -3 -25 -1 -48 4 -57 13 -95 19 -137 23 -19 2 -36 4 -37 5 -2
2 -12 4 -23 5 -11 1 -22 3 -25 5 -13 5 -62 3 -73 -4 -7 -4 -12 -4 -12 1 0 6
-167 13 -173 6z m113 -675 c0 -4 8 -8 17 -8 9 0 13 -3 10 -7 -4 -3 0 -11 8
-17 19 -14 26 -57 11 -75 -9 -12 -8 -13 3 -7 20 13 -14 -36 -44 -62 -22 -20
-24 -28 -24 -109 0 -52 5 -93 12 -102 9 -12 9 -13 0 -7 -7 4 -13 3 -13 -3 0
-15 15 -21 66 -27 25 -2 55 -9 65 -15 14 -7 19 -6 19 3 0 8 5 6 11 -4 5 -10
16 -15 24 -12 8 4 15 1 15 -6 0 -7 7 -10 15 -6 9 3 18 -1 21 -9 4 -8 12 -15
20 -15 7 0 26 -17 41 -37 37 -50 37 -50 89 -47 32 2 43 0 37 -9 -5 -9 -3 -9 8
-1 17 14 81 14 91 -1 5 -6 8 -6 8 2 0 8 14 12 40 10 22 -1 40 -4 40 -7 0 -3 8
-6 18 -7 43 -2 79 -11 108 -26 17 -9 34 -13 38 -10 3 4 6 1 6 -5 0 -6 7 -9 15
-6 8 4 15 1 15 -5 0 -6 8 -11 18 -11 10 0 28 -9 40 -20 12 -12 22 -17 22 -13
0 4 4 3 8 -3 4 -6 23 -21 42 -33 19 -11 33 -23 30 -25 -3 -2 12 -20 32 -39 20
-19 40 -32 43 -29 3 4 3 -2 -1 -12 -5 -12 -4 -17 3 -13 6 4 21 -13 34 -37 13
-25 27 -42 31 -40 4 3 8 -3 8 -14 0 -11 10 -32 22 -48 13 -15 18 -25 11 -21
-8 5 -8 1 0 -17 7 -13 16 -22 22 -18 5 3 4 -1 -3 -10 -10 -13 -8 -20 14 -42
15 -14 35 -26 46 -26 11 0 16 -4 13 -10 -6 -9 8 -14 28 -11 5 1 6 -3 3 -8 -4
-5 -1 -13 7 -18 35 -22 48 -118 25 -184 -11 -33 -48 -82 -48 -64 0 5 -6 1 -13
-9 -7 -9 -22 -18 -34 -19 -12 0 -20 -4 -17 -8 2 -4 -3 -10 -11 -13 -8 -3 -14
-9 -13 -13 3 -14 -15 -67 -30 -90 -8 -13 -11 -23 -8 -23 6 0 -2 -12 -32 -45
-7 -8 -13 -18 -13 -22 0 -9 -36 -58 -61 -85 -10 -10 -18 -23 -18 -28 0 -5 -5
-10 -10 -10 -6 0 -21 -11 -34 -25 -13 -13 -26 -22 -29 -18 -4 3 -7 1 -7 -5 0
-6 -18 -22 -40 -35 -22 -13 -38 -27 -35 -30 3 -4 2 -5 -1 -2 -4 2 -24 -5 -45
-16 -22 -11 -39 -17 -39 -13 0 3 -7 -2 -16 -10 -8 -9 -20 -14 -25 -10 -6 3
-16 1 -23 -5 -8 -7 -18 -11 -22 -10 -26 4 -45 -2 -38 -14 6 -9 4 -9 -8 1 -12
9 -18 10 -23 2 -5 -8 -10 -8 -20 0 -9 7 -15 7 -19 1 -4 -6 -46 -9 -96 -8 -54
1 -90 -2 -91 -8 0 -7 -2 -7 -5 0 -4 11 -114 12 -132 1 -5 -3 -13 0 -15 6 -4
10 -8 9 -16 -2 -6 -8 -11 -10 -11 -5 0 6 -122 10 -345 10 -190 0 -345 -4 -345
-9 0 -5 -5 -5 -12 0 -7 5 -48 9 -90 9 -43 0 -78 3 -78 8 0 4 -5 7 -11 7 -5 0
-7 -6 -3 -12 4 -7 -3 -4 -16 7 -13 11 -20 14 -16 8 4 -7 2 -13 -3 -13 -6 0
-11 5 -11 12 0 6 -3 9 -6 6 -3 -4 -21 0 -40 8 -19 8 -34 11 -34 8 0 -4 -17 6
-37 22 -20 15 -33 22 -29 16 14 -24 -5 -14 -48 25 -8 7 -16 9 -20 6 -3 -4 -6
-1 -6 6 0 7 -4 9 -10 6 -6 -3 -10 -1 -10 4 0 6 -7 11 -16 11 -8 0 -13 3 -11 8
3 4 -1 13 -9 20 -8 7 -14 10 -14 7 0 -3 -17 14 -38 37 -20 24 -40 45 -45 46
-4 2 -5 8 -1 13 3 5 -1 9 -10 9 -8 0 -20 14 -28 30 -7 17 -17 30 -21 30 -5 0
-5 5 -2 10 3 6 1 10 -5 10 -6 0 -8 5 -5 10 3 6 1 10 -4 10 -6 0 -11 7 -11 15
0 8 -5 15 -11 15 -5 0 -8 4 -5 8 3 5 -2 21 -10 36 -7 16 -14 35 -14 43 0 17
-19 37 -40 41 -8 2 -22 10 -31 18 -9 8 -19 11 -22 7 -6 -6 -11 11 -8 30 1 6
-14 11 -30 9 -4 -1 -7 11 -8 26 0 15 -2 48 -4 75 -2 26 0 47 4 47 4 0 5 9 2
20 -3 11 0 20 6 20 6 0 11 5 11 10 0 12 40 54 40 43 0 -5 7 1 15 11 8 11 15
17 15 13 0 -4 9 -3 20 3 11 6 20 18 20 26 0 8 4 13 9 9 6 -3 8 4 6 15 -2 11 0
20 4 20 4 0 15 23 25 50 10 28 22 50 28 50 5 0 6 5 3 10 -3 6 1 13 9 16 9 3
14 10 11 14 -2 4 6 19 20 34 13 14 22 26 19 26 -10 0 103 107 120 113 9 4 16
11 16 17 0 5 5 10 11 10 6 0 24 9 40 21 16 11 29 17 29 12 0 -4 5 -1 10 7 5 8
14 16 20 16 5 1 12 3 15 4 3 1 8 3 13 5 4 1 16 5 27 9 11 5 27 10 35 14 8 3
19 4 24 3 4 -1 13 2 20 7 6 5 19 8 29 7 9 -2 17 1 17 7 0 6 6 5 15 -2 8 -7 15
-8 15 -3 0 14 243 13 252 -1 5 -7 8 -4 8 7 0 10 5 15 10 12 6 -3 10 0 10 8 0
8 11 22 24 33 14 10 23 21 20 26 -3 4 2 8 10 8 9 0 25 8 36 18 11 9 23 16 26
14 3 -2 17 4 31 13 14 9 22 12 19 6 -8 -12 6 -15 18 -4 8 8 29 13 69 15 15 0
27 6 27 12 0 7 3 7 8 -1 6 -9 11 -7 20 7 7 12 8 21 2 25 -6 4 -7 12 -3 18 12
19 13 58 1 51 -7 -5 -8 -2 -3 7 13 21 14 53 1 61 -8 5 -8 8 0 8 18 0 9 39 -14
60 -12 12 -22 17 -22 13 -1 -4 -7 3 -15 17 -15 26 -17 100 -3 100 4 0 8 5 8
11 0 16 23 36 37 32 6 -2 13 0 16 4 7 10 67 11 67 1z"/>
<path d="M1414 2191 c3 -4 -9 -7 -26 -5 -20 3 -39 -2 -51 -13 -15 -13 -18 -14
-12 -3 8 13 6 13 -8 2 -9 -8 -20 -11 -26 -8 -5 3 -11 -1 -15 -9 -3 -8 -11 -15
-19 -15 -18 0 -83 -59 -79 -72 1 -5 -2 -7 -7 -3 -6 3 -15 -4 -21 -15 -6 -11
-8 -20 -5 -20 3 0 -3 -10 -15 -22 -11 -12 -20 -27 -21 -32 0 -6 -3 -20 -6 -31
-3 -11 -5 -30 -5 -42 0 -13 -3 -23 -7 -23 -9 0 -7 -62 3 -78 4 -7 2 -12 -6
-12 -10 0 -10 -2 1 -9 7 -5 10 -14 7 -20 -4 -6 -3 -11 3 -11 6 0 8 -6 5 -14
-3 -8 0 -17 5 -21 6 -3 9 -11 6 -16 -4 -5 -1 -9 5 -9 6 0 9 -4 5 -9 -3 -6 3
-14 12 -20 10 -6 14 -11 10 -11 -4 0 -3 -6 3 -12 6 -7 22 -26 35 -43 14 -16
25 -27 25 -23 0 4 11 -4 24 -17 14 -14 45 -30 70 -37 25 -6 43 -14 41 -17 -2
-3 14 -6 36 -5 21 0 39 -3 39 -8 0 -5 8 -4 18 1 13 7 23 6 30 -1 9 -9 12 -9
12 1 0 9 4 10 13 4 10 -8 32 -10 40 -3 7 6 47 6 47 0 0 -8 44 -5 59 4 5 4 13
2 16 -4 5 -8 11 -7 21 1 11 9 14 9 14 -1 0 -9 4 -9 17 1 14 12 15 12 9 1 -7
-11 -4 -12 13 -3 16 9 21 9 21 0 0 -8 4 -8 15 1 11 9 15 9 15 1 0 -9 5 -9 20
-1 14 8 20 8 20 0 0 -7 6 -8 19 0 14 7 22 7 26 0 5 -8 11 -7 21 1 11 9 14 9
14 0 0 -8 5 -9 19 -1 14 7 22 7 26 0 5 -8 11 -8 20 0 9 8 15 8 20 0 3 -6 11
-7 17 -4 15 10 77 11 71 2 -7 -13 12 -9 25 4 9 9 12 9 12 -1 0 -11 3 -11 15
-1 10 8 15 9 15 1 0 -7 8 -8 24 -1 17 6 26 5 30 -3 3 -9 5 -8 5 1 1 8 6 10 13
6 17 -11 58 -11 58 -1 0 5 7 4 15 -3 12 -10 15 -10 15 1 0 12 2 12 9 0 7 -11
9 -11 14 0 4 11 6 11 6 1 1 -10 6 -10 21 -2 13 7 20 7 20 1 0 -7 9 -7 25 -1
15 6 26 6 30 0 4 -7 13 -6 26 0 14 8 19 7 19 -2 0 -9 3 -9 8 -2 4 5 21 10 39
9 17 0 29 3 26 8 -3 4 1 8 8 6 29 -3 40 1 33 14 -5 7 0 6 11 -3 11 -9 16 -10
11 -2 -4 7 -2 12 8 12 8 0 20 8 25 18 6 10 11 12 11 4 0 -7 12 0 26 15 14 15
31 28 37 28 7 0 11 9 9 19 -2 10 0 16 5 13 9 -6 27 12 31 33 2 7 11 20 20 28
11 9 12 11 2 6 -13 -7 -13 -5 -1 9 7 9 10 17 6 17 -4 0 -2 6 4 13 6 8 8 17 4
20 -3 4 -2 7 4 7 5 0 10 32 10 75 1 41 -2 75 -7 75 -4 0 -6 11 -5 25 2 14 -1
25 -6 25 -4 0 -5 7 -2 17 4 11 3 14 -5 9 -8 -4 -12 0 -12 12 0 10 -18 38 -40
62 -22 24 -40 47 -40 52 0 5 -4 7 -9 3 -6 -3 -13 0 -18 7 -9 15 -48 38 -64 38
-6 0 -18 7 -26 16 -13 13 -17 13 -24 2 -7 -11 -9 -11 -9 0 0 7 -4 10 -10 7 -5
-3 -16 -3 -22 2 -20 12 -38 12 -38 1 0 -7 -4 -7 -12 -1 -16 13 -48 13 -48 1 0
-5 -6 -6 -12 -1 -18 11 -207 10 -201 -1 4 -5 0 -6 -7 -1 -20 12 -81 15 -74 3
3 -5 -4 -4 -15 4 -18 11 -23 11 -30 -1 -7 -11 -9 -11 -13 0 -4 12 -8 12 -20 1
-10 -7 -19 -9 -22 -4 -7 12 -166 10 -185 -2 -9 -6 -12 -5 -8 1 4 6 -17 9 -54
9 -32 -1 -59 -4 -59 -8 0 -5 -5 -8 -11 -8 -5 0 -8 4 -5 9 7 11 -176 7 -194 -4
-8 -5 -11 -4 -7 2 4 6 -4 11 -18 11 -14 0 -22 -5 -19 -10 4 -6 -3 -5 -14 1
-25 13 -35 14 -28 2z"/>
</g>
</svg>
